<?xml version="1.0" encoding="utf-8"?>
<!-- Generator: Adobe Illustrator 21.0.0, SVG Export Plug-In . SVG Version: 6.00 Build 0)  -->
<svg version="1.1" id="图层_1" xmlns="http://www.w3.org/2000/svg" xmlns:xlink="http://www.w3.org/1999/xlink" x="0px" y="0px"
	 viewBox="0 0 1200 160" style="enable-background:new 0 0 1200 160;" xml:space="preserve">
<style type="text/css">
	.st0{fill:none;stroke:#231916;stroke-miterlimit:10;}
</style>
<path id="T_1_" class="st0" d="M740,20h30v120 M800,20h-30"/>
<path id="A" class="st0" d="M660,140V20h60v120 M660,80h60"/>
<polyline id="R_1_" class="st0" points="820,140 820,20 880,20 880,80 830,80 830,90 840,90 840,100 850,100 850,110 860,110 
	860,120 870,120 870,130 880,130 880,140 "/>
<polyline id="M" class="st0" points="580,140 580,20 590,20 590,50 600,50 600,80 620,80 620,50 630,50 630,20 640,20 640,140 "/>
<path id="I" class="st0" d="M900,20h60 M900,140h60 M930,20v120"/>
<path id="X" class="st0" d="M980,20v20h10v20h10v20h20v20h10v20h10v20 M1040,20v20h-10v20h-10v20 M980,140v-20h10v-20h10V80"/>
</svg>
