<?xml version="1.0" encoding="utf-8"?>
<!-- Generator: Adobe Illustrator 21.0.0, SVG Export Plug-In . SVG Version: 6.00 Build 0)  -->
<svg version="1.1" id="图层_1" xmlns="http://www.w3.org/2000/svg" xmlns:xlink="http://www.w3.org/1999/xlink" x="0px" y="0px"
	 viewBox="0 0 1200 160" style="enable-background:new 0 0 1200 160;" xml:space="preserve">
<style type="text/css">
	.st0{fill:none;stroke:#231916;stroke-miterlimit:10;}
</style>
<polyline class="st0" points="20,140 80,140 80,80 20,80 20,20 80,20 "/>
<path class="st0" d="M100,20h30v120 M160,20h-30"/>
<path class="st0" d="M340,20h30v120 M400,20h-30"/>
<path class="st0" d="M180,140V20h60v120 M180,80h60"/>
<polyline class="st0" points="260,140 260,20 320,20 320,80 270,80 270,90 280,90 280,100 290,100 290,110 300,110 300,120 310,120 
	310,130 320,130 320,140 "/>
</svg>
