<?xml version="1.0" encoding="utf-8"?>
<!-- Generator: Adobe Illustrator 21.0.0, SVG Export Plug-In . SVG Version: 6.00 Build 0)  -->
<svg version="1.1" id="图层_1" xmlns="http://www.w3.org/2000/svg" xmlns:xlink="http://www.w3.org/1999/xlink" x="0px" y="0px"
	 viewBox="0 0 1200 160" style="enable-background:new 0 0 1200 160;" xml:space="preserve">
<style type="text/css">
	.st0{fill:none;stroke:#231916;stroke-miterlimit:10;}
</style>
<polyline id="S" class="st0" points="420,140 480,140 480,80 420,80 420,20 480,20 "/>
<path id="T" class="st0" d="M20,20h30v120 M80,20H50"/>
<polyline id="R" class="st0" points="100,140 100,20 160,20 160,80 110,80 110,90 120,90 120,100 130,100 130,110 140,110 140,120 
	150,120 150,130 160,130 160,140 "/>
<path id="E" class="st0" d="M240,140h-60V20h60 M210,80h-30"/>
<polyline id="N" class="st0" points="260,140 260,20 270,20 270,50 280,50 280,80 300,80 300,110 310,110 310,140 320,140 320,20 
	"/>
<polygon id="D" class="st0" points="340,140 340,20 380,20 380,30 390,30 390,40 400,40 400,120 390,120 390,130 380,130 380,140 
	"/>
</svg>
